{"title":"The Man From Laramie(1955)MPEG-4[DaScubaDude]","uid":15379238,"size":1027292353,"categoryP":"video","categoryS":"movies","magnet":"?xt=urn:btih:c6f4c5d175196d68ccac52910fa5845bd174d03c&amp;dn=The+Man+From+Laramie%281955%29MPEG-4%5BDaScubaDude%5D&amp;tr=udp%3A%2F%2Ftracker.leechers-paradise.org%3A6969&amp;tr=udp%3A%2F%2Fzer0day.ch%3A1337&amp;tr=udp%3A%2F%2Fopen.demonii.com%3A1337&amp;tr=udp%3A%2F%2Ftracker.coppersurfer.tk%3A6969&amp;tr=udp%3A%2F%2Fexodus.desync.com%3A6969","seeders":1,"leechers":0,"uploader":"dascuba","files":1,"time":1469216412,"description":"The Man from Laramie (1955)\r\nApproved | 1h 44min | Drama, Western | 31 August 1955 (USA)\r\nA stranger defies the local cattle baron and his sadistic son by working for one of his oldest rivals.\r\nDirector: Anthony Mann\r\nWriters: Philip Yordan (screenplay), Frank Burt (screenplay) | \r\nStars: James Stewart, Arthur Kennedy, Donald Crisp |\r\n\r\nGeneral\r\nComplete name                            : The Man From LaramieTHE_MAN_FROM_LARAMIE_Title1.mp4\r\nFormat                                   : MPEG-4\r\nFormat profile                           : Base Media\r\nCodec ID                                 : isom (isom/iso2/avc1/mp41)\r\nFile size                                : 980 MiB\r\nDuration                                 : 1h 42mn\r\nOverall bit rate mode                    : Variable\r\nOverall bit rate                         : 1 340 Kbps\r\nMovie name                               : THE_MAN_FROM_LARAMIE\r\nGenre                                    : Western\r\nWriting application                      : Lavf54.6.100\r\n\r\nVideo\r\nID                                       : 1\r\nFormat                                   : AVC\r\nFormat/Info                              : Advanced Video Codec\r\nFormat profile                           :   \r\nFormat settings, CABAC                   : No\r\nFormat settings, ReFrames                : 6 frames\r\nCodec ID                                 : avc1\r\nCodec ID/Info                            : Advanced Video Coding\r\nDuration                                 : 1h 42mn\r\nBit rate                                 : 1 205 Kbps\r\nWidth                                    : 720 pixels\r\nHeight                                   : 404 pixels\r\nDisplay aspect ratio                     : 16:9\r\nFrame rate mode                          : Constant\r\nFrame rate                               : 29.970 (30000/1001) fps\r\nColor space                              : YUV\r\nChroma subsampling                       : 4:2:0\r\nBit depth                                : 8 bits\r\nScan type                                : Progressive\r\nBits/(Pixel*Frame)                       : 0.138\r\nStream size                              : 881 MiB (90%)\r\n\r\nAudio\r\nID                                       : 2\r\nFormat                                   : AAC\r\nFormat/Info                              : Advanced Audio Codec\r\nFormat profile                           : LC\r\nCodec ID                                 : 40\r\nDuration                                 : 1h 42mn\r\nBit rate mode                            : Variable\r\nBit rate                                 : 128 Kbps\r\nMaximum bit rate                         : 170 Kbps\r\nChannel(s)                               : 2 channels\r\nChannel positions                        : Front: L R\r\nSampling rate                            : 44.1 KHz\r\nFrame rate                               : 43.066 fps (1024 spf)\r\nCompression mode                         : Lossy\r\nStream size                              : 93.6 MiB (10%)\r\nDefault                                  : Yes\r\nAlternate group                          : 1","torrent":{"xt":"urn:btih:c6f4c5d175196d68ccac52910fa5845bd174d03c","amp;dn":"The+Man+From+Laramie%281955%29MPEG-4%5BDaScubaDude%5D","amp;tr":["udp%3A%2F%2Ftracker.leechers-paradise.org%3A6969","udp%3A%2F%2Fzer0day.ch%3A1337","udp%3A%2F%2Fopen.demonii.com%3A1337","udp%3A%2F%2Ftracker.coppersurfer.tk%3A6969","udp%3A%2F%2Fexodus.desync.com%3A6969"],"infoHash":"c6f4c5d175196d68ccac52910fa5845bd174d03c","infoHashBuffer":{"type":"Buffer","data":[198,244,197,209,117,25,109,104,204,172,82,145,15,165,132,91,209,116,208,60]},"announce":[],"urlList":[]}}